<svg width="996" height="550" viewBox="0 0 996 550" fill="none" xmlns="http://www.w3.org/2000/svg">
<path d="M54.6699 380.242C51.4753 379.008 49.1521 378.318 47.7 378.173C46.2479 378.027 44.4692 377.918 42.3637 377.846C40.3308 377.701 37.8986 377.628 35.0671 377.628C32.3082 377.628 29.0048 377.81 25.1568 378.173V443.188L37.1363 443.515C44.6144 443.225 50.1322 442.281 53.6897 440.684C63.3459 436.255 68.2103 426.236 68.2829 410.626C68.2829 404.527 67.5931 399.3 66.2137 394.944C64.8342 390.588 63.3459 387.357 61.7486 385.251C60.224 383.146 57.8644 381.476 54.6699 380.242ZM17.6425 374.361L38.7699 373.816C45.2315 373.816 50.8945 374.361 55.7589 375.45C60.6233 376.539 65.0884 378.39 69.1541 381.004C77.4308 386.304 81.5692 396.142 81.5692 410.517C81.5692 434.839 66.7582 447 37.1363 447H4.24726V444.168L13.7219 443.297V378.064L4.24726 376.866V374.034C8.67603 374.252 13.1411 374.361 17.6425 374.361ZM125.54 392.548C127.428 392.548 128.916 393.02 130.005 393.964C131.094 394.835 131.639 396.069 131.639 397.666C131.639 400.425 130.586 402.24 128.48 403.112C127.319 402.168 125.213 401.696 122.164 401.696C119.115 401.696 116.174 402.712 113.343 404.745C110.584 406.705 109.204 408.956 109.204 411.497V443.842L119.006 444.386V447H91.3442V444.386L98.5318 443.951V397.449L89.9284 397.013V394.508L109.204 393.31L108.551 406.705H108.987C110.221 402.785 112.472 399.445 115.739 396.686C119.078 393.927 122.346 392.548 125.54 392.548ZM147.968 435.238C147.968 439.958 149.892 442.753 153.74 443.624C154.611 443.842 155.446 443.951 156.245 443.951C159.004 443.951 161.872 442.789 164.848 440.466C167.825 438.07 169.386 434.875 169.531 430.882V421.516C155.156 421.662 147.968 426.236 147.968 435.238ZM152.325 448.307C148.186 448.307 144.629 447.182 141.652 444.931C138.748 442.608 137.296 439.377 137.296 435.238C137.368 429.648 140.164 425.473 145.681 422.714C151.272 419.955 159.222 418.576 169.531 418.576V409.21C169.531 399.99 166.192 395.379 159.512 395.379C156.1 395.379 153.341 396.795 151.235 399.627C149.783 401.587 149.057 404.019 149.057 406.923C149.057 408.158 149.203 409.464 149.493 410.844C148.477 411.57 147.424 411.933 146.335 411.933C145.318 411.933 144.302 411.715 143.285 411.279C140.962 410.408 139.801 408.738 139.801 406.27C139.801 402.93 140.998 400.171 143.394 397.993C147.315 394.436 152.724 392.657 159.621 392.657C166.518 392.657 171.528 394.145 174.65 397.122C177.772 400.026 179.333 404.636 179.333 410.953V443.951L188.481 444.386L188.59 446.891L170.403 448.198L169.422 438.505C166.083 445.04 160.383 448.307 152.325 448.307ZM207.941 441.882C207.941 443.624 207.324 445.149 206.09 446.455C204.856 447.69 203.295 448.307 201.407 448.307C199.592 448.307 198.067 447.69 196.833 446.455C195.599 445.221 194.982 443.697 194.982 441.882C194.982 439.994 195.599 438.433 196.833 437.199C198.067 435.892 199.592 435.238 201.407 435.238C203.222 435.238 204.747 435.892 205.981 437.199C207.288 438.505 207.941 440.066 207.941 441.882ZM290.524 374.252H312.631V376.757L303.701 379.697L275.495 406.488L311.216 443.188L319.928 443.951V447H288.346V443.951L296.078 443.297L266.783 412.151V443.406L276.257 444.386V447H246.091V444.386L255.566 443.406V377.846L246.091 376.866V374.252H276.257V376.866L266.783 377.846V408.992L298.256 379.262L290.524 376.866V374.252ZM333.552 435.238C333.552 439.958 335.476 442.753 339.324 443.624C340.195 443.842 341.03 443.951 341.829 443.951C344.588 443.951 347.455 442.789 350.432 440.466C353.409 438.07 354.97 434.875 355.115 430.882V421.516C340.74 421.662 333.552 426.236 333.552 435.238ZM337.908 448.307C333.77 448.307 330.212 447.182 327.236 444.931C324.331 442.608 322.879 439.377 322.879 435.238C322.952 429.648 325.747 425.473 331.265 422.714C336.855 419.955 344.805 418.576 355.115 418.576V409.21C355.115 399.99 351.775 395.379 345.096 395.379C341.683 395.379 338.925 396.795 336.819 399.627C335.367 401.587 334.641 404.019 334.641 406.923C334.641 408.158 334.786 409.464 335.077 410.844C334.06 411.57 333.007 411.933 331.918 411.933C330.902 411.933 329.886 411.715 328.869 411.279C326.546 410.408 325.384 408.738 325.384 406.27C325.384 402.93 326.582 400.171 328.978 397.993C332.899 394.436 338.307 392.657 345.205 392.657C352.102 392.657 357.112 394.145 360.233 397.122C363.355 400.026 364.916 404.636 364.916 410.953V443.951L374.064 444.386L374.173 446.891L355.986 448.198L355.006 438.505C351.666 445.04 345.967 448.307 337.908 448.307ZM412.583 392.548C414.471 392.548 415.959 393.02 417.048 393.964C418.137 394.835 418.682 396.069 418.682 397.666C418.682 400.425 417.629 402.24 415.524 403.112C414.362 402.168 412.256 401.696 409.207 401.696C406.158 401.696 403.217 402.712 400.386 404.745C397.627 406.705 396.248 408.956 396.248 411.497V443.842L406.049 444.386V447H378.387V444.386L385.575 443.951V397.449L376.972 397.013V394.508L396.248 393.31L395.594 406.705H396.03C397.264 402.785 399.515 399.445 402.782 396.686C406.122 393.927 409.389 392.548 412.583 392.548ZM442.853 376.103C442.853 377.846 442.235 379.371 441.001 380.677C439.767 381.912 438.206 382.529 436.318 382.529C434.503 382.529 432.979 381.912 431.744 380.677C430.51 379.443 429.893 377.918 429.893 376.103C429.893 374.216 430.51 372.655 431.744 371.421C432.979 370.114 434.503 369.46 436.318 369.46C438.133 369.46 439.658 370.114 440.892 371.421C442.199 372.727 442.853 374.288 442.853 376.103ZM424.339 447V444.386L431.527 443.842V397.558L421.943 397.231V394.726L442.199 393.31V443.842L449.387 444.386V447H424.339ZM474.211 405.399C477.478 396.977 484.049 392.766 493.923 392.766C498.86 392.766 502.853 394.254 505.902 397.231C508.951 400.135 510.476 404.31 510.476 409.755C510.476 419.121 510.186 430.483 509.605 443.842L517.119 444.386V447H493.051V444.386L498.932 443.951C499.513 427.542 499.803 418.14 499.803 415.745C499.803 413.349 499.767 411.534 499.695 410.299C499.622 408.992 499.404 407.432 499.041 405.616C498.751 403.729 498.279 402.24 497.625 401.151C496.028 398.465 493.523 397.122 490.111 397.122C485.464 397.122 481.653 399.046 478.676 402.894C475.699 406.742 474.211 410.916 474.211 415.418V443.842L482.379 444.386V447H456.351V444.386L463.538 443.842V397.775L454.282 397.34V394.835L473.775 393.528L473.231 405.29L474.211 405.399ZM534.663 435.238C534.663 439.958 536.587 442.753 540.435 443.624C541.306 443.842 542.141 443.951 542.94 443.951C545.699 443.951 548.566 442.789 551.543 440.466C554.52 438.07 556.081 434.875 556.226 430.882V421.516C541.851 421.662 534.663 426.236 534.663 435.238ZM539.019 448.307C534.881 448.307 531.323 447.182 528.347 444.931C525.442 442.608 523.99 439.377 523.99 435.238C524.063 429.648 526.858 425.473 532.376 422.714C537.966 419.955 545.916 418.576 556.226 418.576V409.21C556.226 399.99 552.886 395.379 546.207 395.379C542.794 395.379 540.036 396.795 537.93 399.627C536.478 401.587 535.752 404.019 535.752 406.923C535.752 408.158 535.897 409.464 536.188 410.844C535.171 411.57 534.118 411.933 533.029 411.933C532.013 411.933 530.997 411.715 529.98 411.279C527.657 410.408 526.495 408.738 526.495 406.27C526.495 402.93 527.693 400.171 530.089 397.993C534.01 394.436 539.418 392.657 546.316 392.657C553.213 392.657 558.223 394.145 561.344 397.122C564.466 400.026 566.027 404.636 566.027 410.953V443.951L575.175 444.386L575.284 446.891L557.097 448.198L556.117 438.505C552.777 445.04 547.078 448.307 539.019 448.307ZM681.64 410.408C681.64 421.299 678.337 430.338 671.73 437.525C665.123 444.64 656.265 448.198 645.157 448.198C634.049 448.198 625.155 444.64 618.476 437.525C611.869 430.338 608.565 421.299 608.565 410.408C608.565 399.518 611.869 390.515 618.476 383.4C625.155 376.212 634.049 372.618 645.157 372.618C656.265 372.618 665.123 376.212 671.73 383.4C678.337 390.515 681.64 399.518 681.64 410.408ZM645.266 444.822C660.658 444.822 668.354 433.351 668.354 410.408C668.354 399.373 666.575 390.878 663.017 384.925C659.533 378.971 653.579 375.995 645.157 375.995C636.735 375.995 630.746 378.971 627.188 384.925C623.631 390.805 621.852 399.3 621.852 410.408C621.852 433.351 629.657 444.822 645.266 444.822ZM714.595 447H689.547V444.386L696.734 443.842V368.807L687.042 368.371V365.866L707.407 363.579V443.842L714.595 444.386V447ZM740.424 376.103C740.424 377.846 739.807 379.371 738.573 380.677C737.339 381.912 735.778 382.529 733.89 382.529C732.075 382.529 730.551 381.912 729.316 380.677C728.082 379.443 727.465 377.918 727.465 376.103C727.465 374.216 728.082 372.655 729.316 371.421C730.551 370.114 732.075 369.46 733.89 369.46C735.705 369.46 737.23 370.114 738.464 371.421C739.771 372.727 740.424 374.288 740.424 376.103ZM721.911 447V444.386L729.098 443.842V397.558L719.515 397.231V394.726L739.771 393.31V443.842L746.959 444.386V447H721.911ZM749.784 393.855H772.654V396.686L765.249 397.34L780.713 435.347L793.782 398.755L785.069 396.686V393.855H805.979V396.686L798.356 398.755L780.277 447H775.921L754.903 397.231L749.784 396.468V393.855ZM834.499 448.198C827.021 448.198 820.995 445.657 816.421 440.575C811.847 435.492 809.56 428.777 809.56 420.427C809.56 412.078 811.956 405.362 816.748 400.28C821.612 395.198 827.711 392.657 835.043 392.657C842.376 392.657 847.858 394.327 851.488 397.666C855.118 400.934 856.933 405.508 856.933 411.388C856.933 413.131 856.788 414.873 856.498 416.616H821.322V420.427C821.322 428.559 822.483 434.73 824.806 438.941C827.13 443.079 830.941 445.149 836.241 445.149C843.719 445.149 849.491 441.882 853.557 435.347C855.154 435.855 855.953 436.618 855.953 437.634C855.953 439.449 854.283 441.555 850.943 443.951C849.346 445.112 847.095 446.129 844.191 447C841.287 447.799 838.056 448.198 834.499 448.198ZM846.587 409.101C846.587 405.762 845.898 402.894 844.518 400.498C842.63 397.303 839.581 395.706 835.37 395.706C827.529 395.706 822.955 401.369 821.648 412.695H846.369C846.515 411.461 846.587 410.263 846.587 409.101ZM884.744 376.103C884.744 377.846 884.127 379.371 882.892 380.677C881.658 381.912 880.097 382.529 878.209 382.529C876.394 382.529 874.87 381.912 873.635 380.677C872.401 379.443 871.784 377.918 871.784 376.103C871.784 374.216 872.401 372.655 873.635 371.421C874.87 370.114 876.394 369.46 878.209 369.46C880.025 369.46 881.549 370.114 882.783 371.421C884.09 372.727 884.744 374.288 884.744 376.103ZM866.23 447V444.386L873.418 443.842V397.558L863.834 397.231V394.726L884.09 393.31V443.842L891.278 444.386V447H866.23ZM932.111 392.548C933.999 392.548 935.487 393.02 936.576 393.964C937.665 394.835 938.21 396.069 938.21 397.666C938.21 400.425 937.157 402.24 935.051 403.112C933.89 402.168 931.784 401.696 928.735 401.696C925.686 401.696 922.745 402.712 919.914 404.745C917.155 406.705 915.775 408.956 915.775 411.497V443.842L925.577 444.386V447H897.915V444.386L905.103 443.951V397.449L896.499 397.013V394.508L915.775 393.31L915.122 406.705H915.558C916.792 402.785 919.043 399.445 922.31 396.686C925.649 393.927 928.917 392.548 932.111 392.548ZM954.539 435.238C954.539 439.958 956.463 442.753 960.311 443.624C961.182 443.842 962.017 443.951 962.816 443.951C965.575 443.951 968.443 442.789 971.419 440.466C974.396 438.07 975.957 434.875 976.102 430.882V421.516C961.727 421.662 954.539 426.236 954.539 435.238ZM958.895 448.307C954.757 448.307 951.2 447.182 948.223 444.931C945.319 442.608 943.867 439.377 943.867 435.238C943.939 429.648 946.735 425.473 952.252 422.714C957.843 419.955 965.793 418.576 976.102 418.576V409.21C976.102 399.99 972.763 395.379 966.083 395.379C962.671 395.379 959.912 396.795 957.806 399.627C956.354 401.587 955.628 404.019 955.628 406.923C955.628 408.158 955.774 409.464 956.064 410.844C955.048 411.57 953.995 411.933 952.906 411.933C951.889 411.933 950.873 411.715 949.856 411.279C947.533 410.408 946.372 408.738 946.372 406.27C946.372 402.93 947.569 400.171 949.965 397.993C953.886 394.436 959.295 392.657 966.192 392.657C973.089 392.657 978.099 394.145 981.221 397.122C984.343 400.026 985.904 404.636 985.904 410.953V443.951L995.052 444.386L995.161 446.891L976.974 448.198L975.993 438.505C972.654 445.04 966.954 448.307 958.895 448.307Z" fill="white"/>
<path d="M226.006 531V504.78H228.46L228.718 511.754H228.847C228.977 511.367 229.192 510.807 229.493 510.075C229.838 509.3 230.333 508.525 230.979 507.75C231.625 506.932 232.486 506.243 233.562 505.684C234.638 505.081 235.973 504.78 237.566 504.78C239.288 504.78 240.666 505.124 241.699 505.813C242.776 506.459 243.615 507.32 244.218 508.396C244.821 509.473 245.251 510.592 245.51 511.754H245.639C245.768 511.367 246.005 510.807 246.349 510.075C246.737 509.3 247.275 508.525 247.964 507.75C248.696 506.932 249.621 506.243 250.741 505.684C251.86 505.081 253.217 504.78 254.81 504.78C256.532 504.78 257.931 505.124 259.007 505.813C260.084 506.502 260.923 507.384 261.526 508.461C262.129 509.494 262.559 510.614 262.818 511.819C263.076 513.025 263.227 514.187 263.27 515.306C263.313 516.383 263.334 517.287 263.334 518.019V531H260.687V517.954C260.687 517.222 260.644 516.297 260.557 515.177C260.514 514.015 260.278 512.852 259.847 511.69C259.46 510.484 258.814 509.494 257.91 508.719C257.005 507.901 255.714 507.492 254.035 507.492C252.183 507.492 250.676 508.009 249.514 509.042C248.351 510.075 247.469 511.432 246.866 513.111C246.306 514.79 246.026 516.62 246.026 518.6V531H243.379V517.954C243.379 517.222 243.335 516.297 243.249 515.177C243.206 514.015 242.969 512.852 242.539 511.69C242.151 510.484 241.506 509.494 240.601 508.719C239.697 507.901 238.406 507.492 236.727 507.492C234.875 507.492 233.368 508.009 232.206 509.042C231.043 510.075 230.161 511.432 229.558 513.111C228.998 514.79 228.718 516.62 228.718 518.6V531H226.006ZM293.309 531.646C290.511 531.646 288.186 530.978 286.334 529.644C284.526 528.309 283.17 526.608 282.266 524.542C281.362 522.432 280.931 520.258 280.974 518.019C280.974 515.694 281.448 513.52 282.395 511.496C283.342 509.473 284.72 507.858 286.528 506.652C288.379 505.404 290.618 504.78 293.245 504.78C296.517 504.78 299.208 505.856 301.317 508.009C303.47 510.118 304.676 512.96 304.934 516.534C304.977 516.749 304.999 517.007 304.999 517.309C304.999 517.61 304.999 517.89 304.999 518.148H283.816C283.816 521.463 284.634 524.111 286.27 526.092C287.906 528.072 290.252 529.063 293.309 529.063C295.505 529.063 297.399 528.481 298.993 527.319C300.629 526.156 301.64 524.585 302.028 522.604H304.934C304.417 525.274 303.104 527.448 300.995 529.127C298.928 530.806 296.366 531.646 293.309 531.646ZM284.009 516.211H301.963C301.92 515.091 301.597 513.843 300.995 512.465C300.435 511.087 299.509 509.882 298.218 508.848C296.969 507.815 295.311 507.298 293.245 507.298C290.403 507.298 288.229 508.181 286.722 509.946C285.215 511.711 284.311 513.8 284.009 516.211ZM293.18 502.132H291.63V501.615L295.118 494.898H297.959V495.673L293.18 502.132ZM335.566 531.646C333.069 531.646 330.938 531.065 329.173 529.902C327.45 528.697 326.137 527.082 325.233 525.058C324.329 522.992 323.877 520.71 323.877 518.213C323.877 515.672 324.329 513.391 325.233 511.367C326.18 509.343 327.515 507.75 329.237 506.588C331.002 505.382 333.134 504.78 335.631 504.78C337.439 504.78 338.946 505.102 340.152 505.748C341.357 506.351 342.326 507.083 343.058 507.944C343.833 508.762 344.414 509.559 344.802 510.334C345.189 511.066 345.426 511.582 345.512 511.884H345.641L345.706 494.64H348.677V531H346.222L345.706 524.606H345.577C345.447 524.908 345.168 525.424 344.737 526.156C344.349 526.888 343.768 527.685 342.993 528.546C342.218 529.407 341.206 530.139 339.958 530.742C338.752 531.344 337.288 531.646 335.566 531.646ZM335.954 528.869C338.623 528.869 340.884 527.943 342.735 526.092C344.586 524.24 345.512 521.614 345.512 518.213C345.512 514.897 344.629 512.314 342.864 510.463C341.142 508.568 338.989 507.621 336.406 507.621C334.253 507.621 332.466 508.138 331.046 509.171C329.625 510.161 328.548 511.475 327.816 513.111C327.128 514.704 326.783 516.404 326.783 518.213C326.783 520.021 327.106 521.743 327.752 523.379C328.398 525.015 329.388 526.35 330.723 527.383C332.057 528.374 333.801 528.869 335.954 528.869ZM369.83 502.003C369.098 502.046 368.603 501.852 368.344 501.421C368.086 500.991 367.957 500.474 367.957 499.871C367.957 499.312 368.086 498.838 368.344 498.45C368.603 498.063 369.098 497.869 369.83 497.869C370.519 497.869 370.992 498.063 371.251 498.45C371.509 498.838 371.638 499.312 371.638 499.871C371.638 500.517 371.509 501.034 371.251 501.421C370.992 501.809 370.519 502.003 369.83 502.003ZM368.28 531V504.78H371.186V531H368.28ZM402.065 531.646C398.362 531.646 395.348 530.483 393.023 528.158C390.698 525.833 389.536 522.626 389.536 518.536C389.579 515.823 390.139 513.434 391.215 511.367C392.291 509.3 393.777 507.686 395.671 506.523C397.566 505.361 399.761 504.78 402.259 504.78C405.445 504.78 408.071 505.662 410.138 507.427C412.247 509.15 413.539 511.324 414.013 513.95H411.236C410.805 511.927 409.772 510.355 408.136 509.236C406.543 508.073 404.605 507.492 402.323 507.492C399.352 507.492 396.963 508.504 395.155 510.527C393.346 512.551 392.442 515.177 392.442 518.406C392.442 521.636 393.303 524.197 395.025 526.092C396.791 527.986 399.159 528.933 402.13 528.933C404.454 528.933 406.435 528.352 408.071 527.19C409.75 526.027 410.805 524.434 411.236 522.411H414.013C413.539 525.08 412.226 527.297 410.073 529.063C407.92 530.785 405.251 531.646 402.065 531.646ZM441.288 531.581C438.877 531.581 436.875 530.978 435.282 529.773C433.689 528.567 432.505 526.953 431.73 524.929C430.955 522.863 430.567 520.581 430.567 518.084C430.567 515.5 430.955 513.197 431.73 511.173C432.548 509.107 433.754 507.492 435.347 506.33C436.94 505.124 438.92 504.521 441.288 504.521C443.828 504.521 445.852 505.146 447.359 506.394C448.866 507.6 449.942 508.999 450.588 510.592H450.717V504.78H453.688V531H451.234L450.717 525.575H450.588C449.899 527.168 448.801 528.567 447.294 529.773C445.787 530.978 443.785 531.581 441.288 531.581ZM442.386 528.869C445.142 528.869 447.208 527.922 448.586 526.027C449.964 524.133 450.653 521.506 450.653 518.148C450.653 514.575 449.921 511.884 448.457 510.075C447.036 508.267 445.012 507.363 442.386 507.363C439.329 507.363 437.09 508.396 435.669 510.463C434.249 512.486 433.538 515.027 433.538 518.084C433.538 521.27 434.27 523.874 435.734 525.898C437.198 527.879 439.415 528.869 442.386 528.869ZM512.663 531.646C510.166 531.646 508.035 531.065 506.27 529.902C504.547 528.697 503.234 527.082 502.33 525.058C501.426 522.992 500.974 520.71 500.974 518.213C500.974 515.672 501.426 513.391 502.33 511.367C503.277 509.343 504.612 507.75 506.334 506.588C508.099 505.382 510.231 504.78 512.728 504.78C514.536 504.78 516.043 505.102 517.249 505.748C518.454 506.351 519.423 507.083 520.155 507.944C520.93 508.762 521.511 509.559 521.898 510.334C522.286 511.066 522.523 511.582 522.609 511.884H522.738L522.803 494.64H525.773V531H523.319L522.803 524.606H522.673C522.544 524.908 522.264 525.424 521.834 526.156C521.446 526.888 520.865 527.685 520.09 528.546C519.315 529.407 518.303 530.139 517.055 530.742C515.849 531.344 514.385 531.646 512.663 531.646ZM513.051 528.869C515.72 528.869 517.98 527.943 519.832 526.092C521.683 524.24 522.609 521.614 522.609 518.213C522.609 514.897 521.726 512.314 519.961 510.463C518.239 508.568 516.086 507.621 513.503 507.621C511.35 507.621 509.563 508.138 508.142 509.171C506.722 510.161 505.645 511.475 504.913 513.111C504.224 514.704 503.88 516.404 503.88 518.213C503.88 520.021 504.203 521.743 504.849 523.379C505.495 525.015 506.485 526.35 507.82 527.383C509.154 528.374 510.898 528.869 513.051 528.869ZM555.839 531.646C553.04 531.646 550.716 530.978 548.864 529.644C547.056 528.309 545.7 526.608 544.795 524.542C543.891 522.432 543.461 520.258 543.504 518.019C543.504 515.694 543.977 513.52 544.925 511.496C545.872 509.473 547.25 507.858 549.058 506.652C550.909 505.404 553.148 504.78 555.774 504.78C559.047 504.78 561.738 505.856 563.847 508.009C566 510.118 567.206 512.96 567.464 516.534C567.507 516.749 567.528 517.007 567.528 517.309C567.528 517.61 567.528 517.89 567.528 518.148H546.345C546.345 521.463 547.163 524.111 548.8 526.092C550.436 528.072 552.782 529.063 555.839 529.063C558.035 529.063 559.929 528.481 561.522 527.319C563.158 526.156 564.17 524.585 564.558 522.604H567.464C566.947 525.274 565.634 527.448 563.524 529.127C561.458 530.806 558.896 531.646 555.839 531.646ZM546.539 516.211H564.493C564.45 515.091 564.127 513.843 563.524 512.465C562.965 511.087 562.039 509.882 560.747 508.848C559.499 507.815 557.841 507.298 555.774 507.298C552.933 507.298 550.759 508.181 549.252 509.946C547.745 511.711 546.841 513.8 546.539 516.211ZM585.825 531V504.844H588.28L588.796 511.754H588.925C589.012 511.453 589.227 510.936 589.571 510.204C589.916 509.473 590.454 508.698 591.186 507.88C591.918 507.018 592.886 506.286 594.092 505.684C595.298 505.081 596.804 504.78 598.613 504.78C600.852 504.78 602.638 505.189 603.973 506.007C605.308 506.782 606.32 507.815 607.008 509.107C607.697 510.398 608.149 511.819 608.365 513.369C608.58 514.919 608.688 516.469 608.688 518.019V531H605.781V517.954C605.781 514.768 605.222 512.228 604.102 510.334C603.026 508.439 601.002 507.492 598.032 507.492C595.922 507.492 594.178 508.009 592.8 509.042C591.466 510.032 590.454 511.388 589.765 513.111C589.119 514.79 588.796 516.62 588.796 518.6V531H585.825ZM632.425 531C631.047 531 630.164 530.613 629.777 529.838C629.389 529.063 629.196 528.137 629.196 527.06V507.169H624.868V504.78C626.418 504.78 627.495 504.693 628.098 504.521C628.7 504.306 629.066 503.725 629.196 502.778C629.325 501.83 629.389 500.237 629.389 497.998H632.037V504.78H638.172V507.169H632.037V528.481H638.172V531H632.425ZM659.466 502.003C658.735 502.046 658.239 501.852 657.981 501.421C657.723 500.991 657.594 500.474 657.594 499.871C657.594 499.312 657.723 498.838 657.981 498.45C658.239 498.063 658.735 497.869 659.466 497.869C660.155 497.869 660.629 498.063 660.887 498.45C661.146 498.838 661.275 499.312 661.275 499.871C661.275 500.517 661.146 501.034 660.887 501.421C660.629 501.809 660.155 502.003 659.466 502.003ZM657.916 531V504.78H660.823V531H657.916ZM690.023 531.646C687.827 531.646 686.04 531.28 684.662 530.548C683.284 529.773 682.23 528.869 681.498 527.835C680.766 526.802 680.249 525.812 679.948 524.865C679.689 523.917 679.56 523.229 679.56 522.798H682.466C682.466 522.841 682.488 523.207 682.531 523.896C682.617 524.542 682.875 525.295 683.306 526.156C683.736 527.017 684.468 527.771 685.502 528.417C686.578 529.019 688.107 529.321 690.087 529.321C691.465 529.321 692.756 529.17 693.962 528.869C695.211 528.524 696.201 528.008 696.933 527.319C697.708 526.587 698.095 525.64 698.095 524.477C698.052 523.099 697.6 522.045 696.739 521.313C695.878 520.538 694.759 519.956 693.381 519.569C692.003 519.181 690.561 518.837 689.054 518.536C687.547 518.234 686.105 517.825 684.727 517.309C683.392 516.792 682.294 516.038 681.433 515.048C680.615 514.058 680.228 512.702 680.271 510.979C680.271 508.956 681.218 507.298 683.112 506.007C685.007 504.715 687.439 504.069 690.41 504.069C691.529 504.069 692.692 504.198 693.897 504.457C695.146 504.715 696.309 505.167 697.385 505.813C698.461 506.459 699.322 507.363 699.968 508.525C700.614 509.645 700.894 511.087 700.808 512.852H697.966C698.052 511.518 697.837 510.441 697.32 509.623C696.804 508.762 696.115 508.116 695.254 507.686C694.436 507.255 693.575 506.975 692.67 506.846C691.766 506.674 690.948 506.588 690.216 506.588C688.193 506.588 686.47 506.975 685.05 507.75C683.672 508.482 682.983 509.58 682.983 511.044C682.983 512.379 683.414 513.391 684.275 514.079C685.136 514.725 686.255 515.242 687.633 515.629C689.011 515.974 690.453 516.318 691.96 516.663C693.467 516.964 694.888 517.395 696.222 517.954C697.6 518.471 698.72 519.246 699.581 520.279C700.485 521.313 700.937 522.755 700.937 524.606C700.937 526.242 700.442 527.599 699.452 528.675C698.461 529.708 697.127 530.462 695.447 530.935C693.811 531.409 692.003 531.646 690.023 531.646ZM724.089 531C722.711 531 721.828 530.613 721.441 529.838C721.053 529.063 720.86 528.137 720.86 527.06V507.169H716.533V504.78C718.083 504.78 719.159 504.693 719.762 504.521C720.364 504.306 720.73 503.725 720.86 502.778C720.989 501.83 721.053 500.237 721.053 497.998H723.701V504.78H729.837V507.169H723.701V528.481H729.837V531H724.089ZM757.653 531.581C755.242 531.581 753.24 530.978 751.647 529.773C750.054 528.567 748.87 526.953 748.095 524.929C747.32 522.863 746.933 520.581 746.933 518.084C746.933 515.5 747.32 513.197 748.095 511.173C748.913 509.107 750.119 507.492 751.712 506.33C753.305 505.124 755.285 504.521 757.653 504.521C760.194 504.521 762.217 505.146 763.724 506.394C765.231 507.6 766.307 508.999 766.953 510.592H767.082V504.78H770.053V531H767.599L767.082 525.575H766.953C766.264 527.168 765.166 528.567 763.659 529.773C762.153 530.978 760.15 531.581 757.653 531.581ZM758.751 528.869C761.507 528.869 763.573 527.922 764.951 526.027C766.329 524.133 767.018 521.506 767.018 518.148C767.018 514.575 766.286 511.884 764.822 510.075C763.401 508.267 761.378 507.363 758.751 507.363C755.694 507.363 753.455 508.396 752.035 510.463C750.614 512.486 749.903 515.027 749.903 518.084C749.903 521.27 750.635 523.874 752.099 525.898C753.563 527.879 755.78 528.869 758.751 528.869Z" fill="white"/>
<path fill-rule="evenodd" clip-rule="evenodd" d="M376.303 157.848C377.425 161.196 378.615 164.595 379.875 168.044C388.344 191.215 399.931 212.848 413.076 232.572C419.536 230.442 426.091 228.206 432.667 225.904C455.839 217.794 479.12 208.936 499.292 201.204C501.316 200.429 503.31 199.664 505.272 198.912C522.76 192.203 537.629 186.5 547.247 183.29C549.342 182.591 551.614 181.824 554.033 181.007C563.596 177.775 575.446 173.771 587.632 170.2C602.832 165.746 619.118 161.79 632.712 160.858C639.489 160.393 646.099 160.638 651.756 162.251C657.503 163.89 662.928 167.163 665.893 173.136C668.781 178.953 668.589 185.856 666.495 193.181C664.39 200.546 660.132 209.193 653.641 219.301C612.763 282.953 553.525 338.458 528.869 358.393C526.486 360.32 523.147 360.534 520.538 358.926C494.404 342.828 445.79 303.977 407.273 249.656C394.35 253.743 381.867 257.336 370.438 260.076C360.351 262.495 350.947 264.283 342.703 265.14C334.578 265.985 327.031 265.991 320.919 264.462C313.61 262.633 307.83 258.475 304.64 252.021C301.569 245.81 301.395 238.476 303.003 231.03C306.198 216.24 316.979 198.277 334.165 179.64C338.087 175.386 347.094 165.9 359.763 153.651C344.562 104.405 343.403 64.8479 350.711 38.2447C354.818 23.2953 361.841 11.6356 371.439 5.23036C381.477 -1.46833 393.284 -1.7024 404.521 4.35429C414.298 9.62401 428.212 20.1339 443.844 32.6703C453.614 40.5052 464.317 49.3496 475.384 58.494C476.319 59.2662 477.256 60.0406 478.195 60.8167C501.167 47.4364 524.972 36.7542 547.982 31.6938C593.436 21.6973 629.472 23.9141 654.558 35.1053C680.027 46.4674 694 67.1032 694 92.0298C694 120.45 678.019 140.265 656.697 150.743C635.658 161.081 609.18 162.548 586.458 154.967C573.87 150.767 557.917 140.911 540.996 128.831C523.893 116.622 505.13 101.641 486.796 86.6361C483.467 83.9117 480.157 81.1898 476.874 78.4842C457.599 90.3883 438.827 104.185 421.629 118.089C404.374 132.039 388.89 145.941 376.303 157.848ZM371.526 142.494C383.333 131.51 397.254 119.191 412.545 106.83C428.683 93.7821 446.509 80.5527 465.112 68.7732C454.457 59.9686 444.236 51.5296 434.804 43.9654C419.005 31.2954 406.094 21.6401 397.666 17.0972C390.698 13.3414 384.65 13.8082 379.459 17.2725C373.828 21.0303 368.247 28.9957 364.652 42.0822C358.61 64.0775 358.857 98.2944 371.526 142.494ZM490.127 70.6561C492.065 72.2495 494.006 73.8425 495.948 75.4316C514.242 90.4044 532.698 105.131 549.391 117.048C566.265 129.095 580.684 137.784 591.03 141.236C610.319 147.673 632.854 146.336 650.326 137.751C667.515 129.304 679.542 114.074 679.542 92.0298C679.542 73.4331 669.513 57.6222 648.672 48.3248C627.448 38.8565 594.866 36.2008 551.085 45.8295C531.309 50.1788 510.575 59.1462 490.127 70.6561ZM398.776 237.152C385.977 217.475 374.695 195.995 366.297 173.017C365.796 171.645 365.305 170.279 364.824 168.921C355.022 178.563 348.042 185.928 344.789 189.457C328.365 207.267 319.541 222.946 317.135 234.089C315.942 239.611 316.468 243.315 317.598 245.602C318.609 247.647 320.531 249.447 324.425 250.421C328.117 251.345 333.698 251.526 341.208 250.745C348.598 249.976 357.333 248.336 367.07 246.002C376.896 243.646 387.6 240.618 398.776 237.152ZM421.704 244.955C456.252 292.454 498.542 327.383 523.775 343.845C549.651 322.149 603.76 270.207 641.479 211.475C647.591 201.957 651.035 194.658 652.595 189.2C654.166 183.701 653.602 180.9 652.945 179.577C652.366 178.41 651.073 177.105 647.795 176.17C644.425 175.209 639.702 174.885 633.7 175.297C621.737 176.117 606.69 179.695 591.694 184.09C579.823 187.569 568.339 191.449 558.788 194.675C556.328 195.506 553.996 196.294 551.82 197.02C542.527 200.121 527.986 205.698 510.353 212.462C508.425 213.201 506.461 213.955 504.462 214.721C484.286 222.453 460.83 231.38 437.439 239.566C432.186 241.404 426.929 243.208 421.704 244.955Z" fill="white"/>
</svg>
